<svg width="73" height="59" viewBox="0 0 73 59" fill="none" xmlns="http://www.w3.org/2000/svg">
<path d="M5.06453 51.8356C-8.85806 36.5352 9.79026 3.66789 21.8591 0.92939C33.9609 -1.83906 61.2127 28.2418 57.3544 39.9373C53.4925 51.695 19.0164 67.1682 5.06453 51.8356Z" fill="url(#paint0_linear_0_37)"/>
<path d="M5.06453 51.8356C-8.85806 36.5352 9.79026 3.66789 21.8591 0.92939C33.9609 -1.83906 61.2127 28.2418 57.3544 39.9373C53.4925 51.695 19.0164 67.1682 5.06453 51.8356Z" fill="white" fill-opacity="0.5"/>
<path d="M27.4003 48.5721C25.7103 48.4559 24.1602 47.9997 22.7501 47.2036C21.3753 46.3766 20.209 45.1811 19.2512 43.617C18.3288 42.0221 17.6479 40.0609 17.2087 37.7335C16.7717 35.3729 16.6626 32.602 16.8814 29.4209C17.1001 26.2398 17.5863 23.5265 18.34 21.2811C19.096 19.0026 20.0388 17.153 21.1686 15.7325C22.3315 14.3143 23.6493 13.3062 25.1221 12.7083C26.6279 12.1127 28.2259 11.873 29.9158 11.9892C31.6058 12.1054 33.1393 12.5605 34.5163 13.3543C35.8933 14.1482 37.0442 15.326 37.9689 16.8878C38.8959 18.4164 39.5624 20.3433 39.9685 22.6685C40.4078 24.9959 40.518 27.7502 40.2993 30.9313C40.0805 34.1125 39.5932 36.8423 38.8372 39.1208C38.1167 41.3685 37.1904 43.2192 36.0583 44.6729C34.9263 46.1265 33.6227 47.1689 32.1477 47.7999C30.6727 48.4309 29.0902 48.6883 27.4003 48.5721ZM27.6206 44.642C28.7472 44.7195 29.7584 44.5393 30.6541 44.1015C31.5499 43.6637 32.3347 42.902 33.0086 41.8163C33.6826 40.7307 34.2313 39.2869 34.6549 37.4849C35.1138 35.652 35.4345 33.4101 35.6167 30.7592C35.799 28.1082 35.8037 25.8613 35.6308 24.0182C35.4602 22.1421 35.1154 20.6202 34.5964 19.4525C34.0774 18.2848 33.4042 17.4229 32.5768 16.8666C31.7495 16.3103 30.7725 15.9934 29.6458 15.9159C28.5192 15.8385 27.4914 16.0175 26.5625 16.453C25.6668 16.8908 24.8654 17.6514 24.1583 18.7348C23.4844 19.8204 22.918 21.2796 22.459 23.1125C22.0354 24.9145 21.7325 27.141 21.5502 29.7919C21.3679 32.4428 21.3621 34.7064 21.5327 36.5826C21.7388 38.4279 22.1013 39.9343 22.6203 41.102C23.1393 42.2697 23.8125 43.1316 24.6398 43.6879C25.5004 44.2465 26.4939 44.5645 27.6206 44.642Z" fill="#21201F"/>
<path d="M51.3102 29.9905L52.4107 13.9855L60.8109 14.5631C64.5222 14.8183 67.3493 15.8284 69.2921 17.5934C71.268 19.3606 72.1432 21.8845 71.9177 25.1651C71.8014 26.855 71.403 28.2925 70.7222 29.4776C70.0746 30.6649 69.1766 31.6186 68.0285 32.3387C66.9157 33.0279 65.6 33.5201 64.0815 33.8152C62.5653 34.0772 60.896 34.1455 59.0734 34.0202L55.7432 33.7912L55.4527 38.0161L65.841 38.7304L65.6018 42.2098L55.2134 41.4954L54.6324 49.9453L49.9601 49.624L50.5412 41.1741L46.4654 40.8939L46.7046 37.4145L50.7804 37.6948L51.0709 33.4699L46.9951 33.1896L47.2344 29.7103L51.3102 29.9905ZM56.8062 18.3329L55.9825 30.3118L59.3127 30.5408C61.7317 30.7071 63.6049 30.3366 64.9325 29.429C66.2954 28.4907 67.0498 26.9611 67.1957 24.8404C67.3301 22.8853 66.8659 21.4051 65.8031 20.3998C64.7756 19.3637 63.0193 18.7601 60.534 18.5892L56.8062 18.3329Z" fill="#21201F"/>
<defs>
<linearGradient id="paint0_linear_0_37" x1="5.07898" y1="51.8518" x2="45.5806" y2="14.9973" gradientUnits="userSpaceOnUse">
<stop stop-color="#FF5C4D"/>
<stop offset="0.25" stop-color="#EB469F"/>
<stop offset="0.72" stop-color="#8341EF"/>
<stop offset="1" stop-color="#3F68F9"/>
</linearGradient>
</defs>
</svg>
