<svg width="84" height="68" viewBox="0 0 84 68" fill="none" xmlns="http://www.w3.org/2000/svg">
<path d="M14.4163 32.8195C14.4163 16.3924 42.325 7.05492 50.6942 11.8966C59.0979 16.7383 59.0288 48.9699 50.6942 53.777C42.325 58.6187 14.4163 49.2812 14.4163 32.8195Z" fill="url(#paint0_linear_46_2)"/>
<path d="M14.4163 32.8195C14.4163 16.3924 42.325 7.05492 50.6942 11.8966C59.0979 16.7383 59.0288 48.9699 50.6942 53.777C42.325 58.6187 14.4163 49.2812 14.4163 32.8195Z" fill="white" fill-opacity="0.5"/>
<path d="M53.8412 67.5062C49.5528 67.5062 45.1953 64.532 45.1953 58.8603C45.1953 55.3328 47.0974 52.4278 50.0024 51.0445L41.5987 19.4007C36.9645 19.3316 33.0566 19.4353 29.4253 19.712L29.1487 16.2537C33.2295 15.9424 37.587 15.8387 42.9474 15.9424L44.2616 15.977L53.3224 50.2145C58.3716 49.9724 62.4524 53.742 62.4524 58.8603C62.487 63.8057 58.752 67.5062 53.8412 67.5062ZM53.8412 53.6728C50.8324 53.6728 48.6537 55.8516 48.6537 58.8603C48.6537 62.6991 51.4549 64.0478 53.8412 64.0478C56.8499 64.0478 59.0287 61.8691 59.0287 58.8603C59.0287 55.8516 56.8499 53.6728 53.8412 53.6728ZM9.1595 67.5062C4.87117 67.5062 0.513672 64.532 0.513672 58.8603C0.513672 53.9149 4.21409 50.2145 9.1595 50.2145C13.4824 50.2145 16.8716 53.0849 17.6324 57.1312H27.5924C31.5695 57.1312 33.437 56.3703 36.3074 53.6728C38.7628 51.3212 41.1145 48.8312 43.2933 46.2374L45.9562 48.4507C43.7083 51.1482 41.2528 53.742 38.6937 56.1628C35.1662 59.5174 32.4687 60.5895 27.5924 60.5895H17.667C16.9062 64.6357 13.517 67.5062 9.1595 67.5062ZM9.1595 53.6728C6.15076 53.6728 3.97201 55.8516 3.97201 58.8603C3.97201 62.6991 6.77326 64.0478 9.1595 64.0478C12.1683 64.0478 14.347 61.8691 14.347 58.8603C14.347 55.8516 12.1683 53.6728 9.1595 53.6728ZM52.9074 24.0349H50.6595C49.4145 24.0349 48.377 23.032 48.377 21.7524C48.377 20.5074 49.3799 19.5045 50.6595 19.5045H52.9074V24.0349Z" fill="#21201F"/>
<path d="M68.1241 16.4157L57.6919 5.53248L59.4179 3.74025L69.8755 14.6235L68.1241 16.4157ZM59.4179 16.4157L57.6919 14.6235L68.1749 3.74025L69.8755 5.53248L59.4179 16.4157Z" fill="#21201F"/>
<path d="M74.8656 10.5975V7.79225H77.2008C77.7761 7.79225 78.2753 7.69701 78.6984 7.50653C79.1214 7.29873 79.4514 7.00436 79.6883 6.6234C79.9252 6.22513 80.0436 5.74893 80.0436 5.19481C80.0436 4.67532 79.9252 4.23376 79.6883 3.87012C79.4683 3.50648 79.1383 3.22942 78.6984 3.03894C78.2584 2.83114 77.7169 2.72725 77.0739 2.72725C76.2786 2.72725 75.5171 2.87443 74.7895 3.16881C74.0787 3.44587 73.3173 3.90475 72.505 4.54545V1.53243C72.9788 1.1861 73.4696 0.900383 73.9772 0.675272C74.4849 0.45016 75.0348 0.285656 75.6271 0.181759C76.2193 0.0605455 76.8539 -6.10352e-05 77.5308 -6.10352e-05C78.7153 -6.10352e-05 79.7391 0.207734 80.6021 0.623324C81.4651 1.03891 82.1335 1.61901 82.6073 2.36361C83.0811 3.1082 83.318 3.96536 83.318 4.93507C83.318 5.55845 83.208 6.12123 82.988 6.6234C82.768 7.12557 82.4804 7.54982 82.125 7.89614C81.7697 8.24247 81.3635 8.51953 80.9067 8.72732C80.4498 8.93512 79.9844 9.06499 79.5106 9.11694V9.01304C80.086 9.06499 80.6359 9.20352 81.1605 9.42863C81.702 9.63643 82.1842 9.9308 82.6073 10.3118C83.0303 10.6927 83.3603 11.1516 83.5972 11.6884C83.851 12.2252 83.9779 12.8399 83.9779 13.5326C83.9779 14.6581 83.6987 15.6452 83.1403 16.4937C82.5819 17.3248 81.8035 17.9742 80.8051 18.4417C79.8067 18.892 78.6391 19.1171 77.3023 19.1171C76.6255 19.1171 75.974 19.0565 75.3479 18.9352C74.7218 18.8314 74.138 18.6668 73.5965 18.4417C73.055 18.1993 72.5558 17.9136 72.0989 17.5846V14.5716C72.8942 15.1949 73.6895 15.6538 74.4849 15.9482C75.2802 16.2426 76.1347 16.3898 77.0485 16.3898C77.8269 16.3898 78.4784 16.2685 79.003 16.0261C79.5275 15.7837 79.9167 15.446 80.1706 15.0131C80.4413 14.5629 80.5767 14.0261 80.5767 13.4027C80.5767 12.7793 80.4498 12.2598 80.1959 11.8442C79.9421 11.4287 79.5614 11.117 79.0537 10.9092C78.5461 10.7014 77.8946 10.5975 77.0993 10.5975H74.8656Z" fill="#21201F"/>
<defs>
<linearGradient id="paint0_linear_46_2" x1="14.4163" y1="32.8367" x2="56.9711" y2="32.8367" gradientUnits="userSpaceOnUse">
<stop stop-color="#FF5C4D"/>
<stop offset="0.25" stop-color="#EB469F"/>
<stop offset="0.72" stop-color="#8341EF"/>
<stop offset="1" stop-color="#3F68F9"/>
</linearGradient>
</defs>
</svg>
