<svg width="62" height="58" viewBox="0 0 62 58" fill="none" xmlns="http://www.w3.org/2000/svg">
<path d="M0.691933 38.1964C-4.96137 20.9173 25.5269 0.128732 37.6324 13.0083C45.6378 21.5238 45.0449 41.9339 33.4389 49.8476C21.8329 57.7612 4.42895 49.6222 0.691933 38.1964Z" fill="url(#paint0_linear_46_3)"/>
<path d="M0.691933 38.1964C-4.96137 20.9173 25.5269 0.128732 37.6324 13.0083C45.6378 21.5238 45.0449 41.9339 33.4389 49.8476C21.8329 57.7612 4.42895 49.6222 0.691933 38.1964Z" fill="white" fill-opacity="0.5"/>
<path d="M34.329 55.8809C21.5912 56.8639 11.9999 48.6469 11.0169 35.9091C10.034 23.1713 18.2509 13.58 30.9888 12.597C36.0592 12.2057 40.7422 13.2439 44.5933 15.5903C50.2734 19.0707 53.7234 25.0869 54.3008 32.5688C55.2838 45.3067 47.0668 54.8979 34.329 55.8809ZM29.6863 15.8699C19.5028 17.3088 13.2927 25.0969 14.1087 35.6705C14.9652 46.7697 22.9912 53.6457 34.0904 52.7892C45.1896 51.9327 52.0656 43.9066 51.2091 32.8074C50.7105 26.3458 47.791 21.1594 42.9624 18.2354C40.0581 16.469 36.5689 15.5875 32.778 15.6313L34.46 37.4278L20.3309 38.5181L20.0756 35.21L31.113 34.3583L29.6863 15.8699ZM55.1064 20.4394L53.3245 17.9022L57.4263 15.0354L59.2083 17.5726L55.1064 20.4394ZM48.4478 13.1469L45.8598 11.4494L50.8738 3.87811L53.4618 5.57556L48.4478 13.1469ZM38.1512 8.68537L35.0522 8.4269C35.102 7.86323 34.9069 7.34957 34.4359 6.8883C32.7492 5.18349 28.0498 5.54615 26.6448 7.48955C26.281 8.01524 26.167 8.55276 26.3003 9.07119L23.2777 9.80207C22.9182 8.36805 23.2389 6.88155 24.14 5.66127C25.3763 3.9486 27.652 2.80885 30.1872 2.6132C32.7533 2.41517 35.146 3.19466 36.6305 4.69737C37.7414 5.79348 38.2864 7.21318 38.1512 8.68537Z" fill="#21201F"/>
<defs>
<linearGradient id="paint0_linear_46_3" x1="41.7557" y1="19.2615" x2="2.65778" y2="42.2842" gradientUnits="userSpaceOnUse">
<stop stop-color="#FF5C4D"/>
<stop offset="0.25" stop-color="#EB469F"/>
<stop offset="0.72" stop-color="#8341EF"/>
<stop offset="1" stop-color="#3F68F9"/>
</linearGradient>
</defs>
</svg>
