<svg width="74" height="60" viewBox="0 0 74 60" fill="none" xmlns="http://www.w3.org/2000/svg">
<path d="M0.859306 39.5427C-6.16149 16.1404 31.7016 -12.015 46.7354 5.42874C56.6772 16.9618 55.941 44.6047 41.5275 55.3227C27.1141 66.0407 5.50028 55.0175 0.859306 39.5427Z" fill="url(#paint0_linear_29_84)"/>
<path d="M0.859306 39.5427C-6.16149 16.1404 31.7016 -12.015 46.7354 5.42874C56.6772 16.9618 55.941 44.6047 41.5275 55.3227C27.1141 66.0407 5.50028 55.0175 0.859306 39.5427Z" fill="white" fill-opacity="0.5"/>
<path d="M22.8016 26.8173C22.4292 22.5606 25.578 18.808 29.8347 18.4356L60.1787 15.7809C64.4353 15.4084 68.188 18.5573 68.5604 22.8139L69.4199 32.6383C69.7923 36.895 66.6435 40.6476 62.3868 41.02L32.0428 43.6747C27.7861 44.0471 24.0335 40.8983 23.6611 36.6417L22.8016 26.8173Z" stroke="#21201F" stroke-width="3.50169"/>
<defs>
<linearGradient id="paint0_linear_29_84" x1="51.8561" y1="13.8978" x2="1.22539" y2="41.2356" gradientUnits="userSpaceOnUse">
<stop stop-color="#FF5C4D"/>
<stop offset="0.25" stop-color="#EB469F"/>
<stop offset="0.72" stop-color="#8341EF"/>
<stop offset="1" stop-color="#3F68F9"/>
</linearGradient>
</defs>
</svg>
